<?xml version="1.0" standalone="no"?><svg xmlns:xlink="http://www.w3.org/1999/xlink" xmlns="http://www.w3.org/2000/svg" viewBox="0 0 1000 545.4633855803183" preserveAspectRatio="xMaxYMax slice"><g transform="scale(1.5193966172153714)"><rect x="0" y="0" width="658.1666666666667" height="359" fill="#ffffff"/><rect x="0" y="0" width="59.83" height="59.83" fill="#FF3565"/><g transform="translate(0,0) scale(2.9915) rotate(0)"><rect width="2" height="20" fill="#FF3565"/><rect x="4" width="2" height="20" fill="#FF3565"/><rect x="8" width="2" height="20" fill="#FF3565"/><rect x="12" width="2" height="20" fill="#FF3565"/><rect x="16" width="2" height="20" fill="#FF3565"/></g><rect x="119.67" y="0" width="59.83" height="59.83" fill="#FF3565"/><g transform="translate(119.67,0) scale(2.9915) rotate(0)"><rect width="2" height="20" fill="#FF3565"/><rect x="4" width="2" height="20" fill="#FF3565"/><rect x="8" width="2" height="20" fill="#FF3565"/><rect x="12" width="2" height="20" fill="#FF3565"/><rect x="16" width="2" height="20" fill="#FF3565"/></g><rect x="179.5" y="0" width="59.83" height="59.83" fill="#FF3565"/><g transform="translate(179.5,0) scale(2.9915) rotate(0)"><rect width="2" height="20" fill="#FF3565"/><rect x="4" width="2" height="20" fill="#FF3565"/><rect x="8" width="2" height="20" fill="#FF3565"/><rect x="12" width="2" height="20" fill="#FF3565"/><rect x="16" width="2" height="20" fill="#FF3565"/></g><rect x="299.17" y="0" width="59.83" height="59.83" fill="#FF3565"/><g transform="translate(299.17,0) scale(2.9915) rotate(0)"><path d="M5 0H10L5 5L0 10V5L5 0Z" fill="#FF3565"/><path d="M20 15V20H15L20 15Z" fill="#FF3565"/><path d="M20 5V10L15 15L10 20H5L20 5Z" fill="#FF3565"/><path d="M15 0H20L5 15.0002L0 20.0002V15.0002L15 0Z" fill="#FF3565"/></g><rect x="478.67" y="0" width="59.83" height="59.83" fill="#183FE1"/><g transform="translate(478.67,0) scale(2.9915) rotate(0)"><rect width="2" height="20" fill="#FF3565"/><rect x="4" width="2" height="20" fill="#FF3565"/><rect x="8" width="2" height="20" fill="#FF3565"/><rect x="12" width="2" height="20" fill="#FF3565"/><rect x="16" width="2" height="20" fill="#FF3565"/></g><rect x="0" y="59.83" width="59.83" height="59.83" fill="#183FE1"/><g transform="translate(0,59.83) scale(2.9915) rotate(0)"><path d="M5 0H10L5 5L0 10V5L5 0Z" fill="#183FE1"/><path d="M20 15V20H15L20 15Z" fill="#183FE1"/><path d="M20 5V10L15 15L10 20H5L20 5Z" fill="#183FE1"/><path d="M15 0H20L5 15.0002L0 20.0002V15.0002L15 0Z" fill="#183FE1"/></g><rect x="119.67" y="59.83" width="59.83" height="59.83" fill="#183FE1"/><g transform="translate(119.67,59.83) scale(2.9915) rotate(0)"><rect width="2" height="20" fill="#183FE1"/><rect x="4" width="2" height="20" fill="#183FE1"/><rect x="8" width="2" height="20" fill="#183FE1"/><rect x="12" width="2" height="20" fill="#183FE1"/><rect x="16" width="2" height="20" fill="#183FE1"/></g><rect x="239.33" y="59.83" width="59.83" height="59.83" fill="#183FE1"/><g transform="translate(239.33,59.83) scale(2.9915) rotate(0)"><path d="M5 0H10L5 5L0 10V5L5 0Z" fill="#FF3565"/><path d="M20 15V20H15L20 15Z" fill="#FF3565"/><path d="M20 5V10L15 15L10 20H5L20 5Z" fill="#FF3565"/><path d="M15 0H20L5 15.0002L0 20.0002V15.0002L15 0Z" fill="#FF3565"/></g><rect x="299.17" y="59.83" width="59.83" height="59.83" fill="#183FE1"/><g transform="translate(299.17,59.83) scale(2.9915) rotate(0)"><rect width="2" height="20" fill="#183FE1"/><rect x="4" width="2" height="20" fill="#183FE1"/><rect x="8" width="2" height="20" fill="#183FE1"/><rect x="12" width="2" height="20" fill="#183FE1"/><rect x="16" width="2" height="20" fill="#183FE1"/></g><rect x="119.67" y="119.67" width="59.83" height="59.83" fill="#FF3565"/><g transform="translate(119.67,119.67) scale(2.9915) rotate(0)"><path d="M5 0H10L5 5L0 10V5L5 0Z" fill="#FF3565"/><path d="M20 15V20H15L20 15Z" fill="#FF3565"/><path d="M20 5V10L15 15L10 20H5L20 5Z" fill="#FF3565"/><path d="M15 0H20L5 15.0002L0 20.0002V15.0002L15 0Z" fill="#FF3565"/></g><rect x="359" y="119.67" width="59.83" height="59.83" fill="#FF3565"/><g transform="translate(359,119.67) scale(2.9915) rotate(0)"><path d="M5 0H10L5 5L0 10V5L5 0Z" fill="#183FE1"/><path d="M20 15V20H15L20 15Z" fill="#183FE1"/><path d="M20 5V10L15 15L10 20H5L20 5Z" fill="#183FE1"/><path d="M15 0H20L5 15.0002L0 20.0002V15.0002L15 0Z" fill="#183FE1"/></g><rect x="478.67" y="119.67" width="59.83" height="59.83" fill="#183FE1"/><g transform="translate(478.67,119.67) scale(2.9915) rotate(0)"><path d="M5 0H10L5 5L0 10V5L5 0Z" fill="#FF3565"/><path d="M20 15V20H15L20 15Z" fill="#FF3565"/><path d="M20 5V10L15 15L10 20H5L20 5Z" fill="#FF3565"/><path d="M15 0H20L5 15.0002L0 20.0002V15.0002L15 0Z" fill="#FF3565"/></g><rect x="538.5" y="119.67" width="59.83" height="59.83" fill="#FF3565"/><g transform="translate(538.5,119.67) scale(2.9915) rotate(0)"><path d="M5 0H10L5 5L0 10V5L5 0Z" fill="#183FE1"/><path d="M20 15V20H15L20 15Z" fill="#183FE1"/><path d="M20 5V10L15 15L10 20H5L20 5Z" fill="#183FE1"/><path d="M15 0H20L5 15.0002L0 20.0002V15.0002L15 0Z" fill="#183FE1"/></g><rect x="598.33" y="119.67" width="59.83" height="59.83" fill="#FF3565"/><g transform="translate(598.33,119.67) scale(2.9915) rotate(0)"><rect width="2" height="20" fill="#183FE1"/><rect x="4" width="2" height="20" fill="#183FE1"/><rect x="8" width="2" height="20" fill="#183FE1"/><rect x="12" width="2" height="20" fill="#183FE1"/><rect x="16" width="2" height="20" fill="#183FE1"/></g><rect x="119.67" y="179.5" width="59.83" height="59.83" fill="#183FE1"/><g transform="translate(119.67,179.5) scale(2.9915) rotate(0)"><rect width="2" height="20" fill="#FF3565"/><rect x="4" width="2" height="20" fill="#FF3565"/><rect x="8" width="2" height="20" fill="#FF3565"/><rect x="12" width="2" height="20" fill="#FF3565"/><rect x="16" width="2" height="20" fill="#FF3565"/></g><rect x="299.17" y="179.5" width="59.83" height="59.83" fill="#183FE1"/><g transform="translate(299.17,179.5) scale(2.9915) rotate(0)"><path d="M5 0H10L5 5L0 10V5L5 0Z" fill="#183FE1"/><path d="M20 15V20H15L20 15Z" fill="#183FE1"/><path d="M20 5V10L15 15L10 20H5L20 5Z" fill="#183FE1"/><path d="M15 0H20L5 15.0002L0 20.0002V15.0002L15 0Z" fill="#183FE1"/></g><rect x="0" y="239.33" width="59.83" height="59.83" fill="#FF3565"/><g transform="translate(0,239.33) scale(2.9915) rotate(0)"><rect width="2" height="20" fill="#FF3565"/><rect x="4" width="2" height="20" fill="#FF3565"/><rect x="8" width="2" height="20" fill="#FF3565"/><rect x="12" width="2" height="20" fill="#FF3565"/><rect x="16" width="2" height="20" fill="#FF3565"/></g><rect x="239.33" y="239.33" width="59.83" height="59.83" fill="#183FE1"/><g transform="translate(239.33,239.33) scale(2.9915) rotate(0)"><rect width="2" height="20" fill="#183FE1"/><rect x="4" width="2" height="20" fill="#183FE1"/><rect x="8" width="2" height="20" fill="#183FE1"/><rect x="12" width="2" height="20" fill="#183FE1"/><rect x="16" width="2" height="20" fill="#183FE1"/></g><rect x="299.17" y="239.33" width="59.83" height="59.83" fill="#FF3565"/><g transform="translate(299.17,239.33) scale(2.9915) rotate(0)"><path d="M5 0H10L5 5L0 10V5L5 0Z" fill="#183FE1"/><path d="M20 15V20H15L20 15Z" fill="#183FE1"/><path d="M20 5V10L15 15L10 20H5L20 5Z" fill="#183FE1"/><path d="M15 0H20L5 15.0002L0 20.0002V15.0002L15 0Z" fill="#183FE1"/></g><rect x="359" y="239.33" width="59.83" height="59.83" fill="#183FE1"/><g transform="translate(359,239.33) scale(2.9915) rotate(0)"><rect width="2" height="20" fill="#183FE1"/><rect x="4" width="2" height="20" fill="#183FE1"/><rect x="8" width="2" height="20" fill="#183FE1"/><rect x="12" width="2" height="20" fill="#183FE1"/><rect x="16" width="2" height="20" fill="#183FE1"/></g><rect x="179.5" y="299.17" width="59.83" height="59.83" fill="#FF3565"/><g transform="translate(179.5,299.17) scale(2.9915) rotate(0)"><path d="M5 0H10L5 5L0 10V5L5 0Z" fill="#183FE1"/><path d="M20 15V20H15L20 15Z" fill="#183FE1"/><path d="M20 5V10L15 15L10 20H5L20 5Z" fill="#183FE1"/><path d="M15 0H20L5 15.0002L0 20.0002V15.0002L15 0Z" fill="#183FE1"/></g><rect x="538.5" y="299.17" width="59.83" height="59.83" fill="#FF3565"/><g transform="translate(538.5,299.17) scale(2.9915) rotate(0)"><path d="M5 0H10L5 5L0 10V5L5 0Z" fill="#FF3565"/><path d="M20 15V20H15L20 15Z" fill="#FF3565"/><path d="M20 5V10L15 15L10 20H5L20 5Z" fill="#FF3565"/><path d="M15 0H20L5 15.0002L0 20.0002V15.0002L15 0Z" fill="#FF3565"/></g></g></svg>